<mxfile host="app.diagrams.net" modified="2024-03-07T18:14:37.658Z" agent="Mozilla/5.0 (Macintosh; Intel Mac OS X 10_15_7) AppleWebKit/537.36 (KHTML, like Gecko) Chrome/122.0.0.0 Safari/537.36" etag="RF9FmKUA8FvBVDvwM9Ip" version="24.0.1" type="device">
  <diagram name="Page-1" id="670Q9pedbY3e1sjcFSfJ">
    <mxGraphModel dx="1876" dy="604" grid="1" gridSize="10" guides="1" tooltips="1" connect="1" arrows="1" fold="1" page="1" pageScale="1" pageWidth="850" pageHeight="1100" math="0" shadow="0">
      <root>
        <mxCell id="0" />
        <mxCell id="1" parent="0" />
        <mxCell id="IrhECHXohic5VT-jn3a0-1" value="" style="rounded=0;whiteSpace=wrap;html=1;strokeColor=#ff0000;" parent="1" vertex="1">
          <mxGeometry x="-100" y="80" width="970" height="620" as="geometry" />
        </mxCell>
        <mxCell id="IrhECHXohic5VT-jn3a0-2" value="gateway&lt;br&gt;(incoming)" style="rounded=0;whiteSpace=wrap;html=1;dashed=1;dashPattern=8 8;strokeColor=#ff8800;" parent="1" vertex="1">
          <mxGeometry x="22" y="120" width="120" height="60" as="geometry" />
        </mxCell>
        <mxCell id="IrhECHXohic5VT-jn3a0-3" value="config&lt;br&gt;(incoming)" style="rounded=0;whiteSpace=wrap;html=1;strokeColor=#B20000;fillColor=#e51400;fontColor=#ffffff;" parent="1" vertex="1">
          <mxGeometry x="710" y="120" width="120" height="60" as="geometry" />
        </mxCell>
        <mxCell id="qY4aRSUaqLR2g1H3hcIw-1" style="edgeStyle=orthogonalEdgeStyle;rounded=0;orthogonalLoop=1;jettySize=auto;html=1;entryX=0.5;entryY=1;entryDx=0;entryDy=0;fillColor=#6a00ff;strokeColor=#3700CC;" edge="1" parent="1" source="IrhECHXohic5VT-jn3a0-4" target="IrhECHXohic5VT-jn3a0-3">
          <mxGeometry relative="1" as="geometry">
            <Array as="points">
              <mxPoint x="72" y="250" />
              <mxPoint x="770" y="250" />
            </Array>
          </mxGeometry>
        </mxCell>
        <mxCell id="IrhECHXohic5VT-jn3a0-4" value="rabobank-travels-app" style="rounded=0;whiteSpace=wrap;html=1;fillColor=#0050ef;fontColor=#ffffff;strokeColor=#001DBC;verticalAlign=top;" parent="1" vertex="1">
          <mxGeometry x="2" y="330" width="140" height="120" as="geometry" />
        </mxCell>
        <mxCell id="qY4aRSUaqLR2g1H3hcIw-2" style="edgeStyle=orthogonalEdgeStyle;rounded=0;orthogonalLoop=1;jettySize=auto;html=1;entryX=0.5;entryY=1;entryDx=0;entryDy=0;fillColor=#6a00ff;strokeColor=#3700CC;" edge="1" parent="1" source="IrhECHXohic5VT-jn3a0-5" target="IrhECHXohic5VT-jn3a0-3">
          <mxGeometry relative="1" as="geometry">
            <mxPoint x="770" y="200" as="targetPoint" />
            <Array as="points">
              <mxPoint x="290" y="260" />
              <mxPoint x="771" y="260" />
            </Array>
          </mxGeometry>
        </mxCell>
        <mxCell id="IrhECHXohic5VT-jn3a0-5" value="rabobank-travels-flights-app" style="rounded=0;whiteSpace=wrap;html=1;fillColor=#6a00ff;fontColor=#ffffff;strokeColor=#3700CC;verticalAlign=top;" parent="1" vertex="1">
          <mxGeometry x="220" y="330" width="140" height="120" as="geometry" />
        </mxCell>
        <mxCell id="qY4aRSUaqLR2g1H3hcIw-3" style="edgeStyle=orthogonalEdgeStyle;rounded=0;orthogonalLoop=1;jettySize=auto;html=1;fillColor=#d80073;strokeColor=#A50040;" edge="1" parent="1" source="IrhECHXohic5VT-jn3a0-6">
          <mxGeometry relative="1" as="geometry">
            <mxPoint x="770" y="180" as="targetPoint" />
            <Array as="points">
              <mxPoint x="510" y="270" />
              <mxPoint x="771" y="270" />
            </Array>
          </mxGeometry>
        </mxCell>
        <mxCell id="IrhECHXohic5VT-jn3a0-6" value="rabobank-travels-hotels-app" style="rounded=0;whiteSpace=wrap;html=1;fillColor=#d80073;fontColor=#ffffff;strokeColor=#A50040;verticalAlign=top;" parent="1" vertex="1">
          <mxGeometry x="440" y="330" width="140" height="120" as="geometry" />
        </mxCell>
        <mxCell id="qY4aRSUaqLR2g1H3hcIw-4" style="edgeStyle=orthogonalEdgeStyle;rounded=0;orthogonalLoop=1;jettySize=auto;html=1;entryX=0.5;entryY=1;entryDx=0;entryDy=0;fillColor=#a20025;strokeColor=#6F0000;" edge="1" parent="1" source="IrhECHXohic5VT-jn3a0-7" target="IrhECHXohic5VT-jn3a0-3">
          <mxGeometry relative="1" as="geometry">
            <Array as="points">
              <mxPoint x="730" y="280" />
              <mxPoint x="770" y="280" />
            </Array>
          </mxGeometry>
        </mxCell>
        <mxCell id="IrhECHXohic5VT-jn3a0-7" value="rabobank-travels-rent-car-app" style="rounded=0;whiteSpace=wrap;html=1;fillColor=#a20025;fontColor=#ffffff;strokeColor=#6F0000;verticalAlign=top;" parent="1" vertex="1">
          <mxGeometry x="660" y="330" width="140" height="120" as="geometry" />
        </mxCell>
        <mxCell id="IrhECHXohic5VT-jn3a0-8" value="" style="shape=cylinder3;whiteSpace=wrap;html=1;boundedLbl=1;backgroundOutline=1;size=15;direction=south;fillColor=#60a917;fontColor=#ffffff;strokeColor=#2D7600;" parent="1" vertex="1">
          <mxGeometry x="360" y="520" width="80" height="60" as="geometry" />
        </mxCell>
        <mxCell id="IrhECHXohic5VT-jn3a0-9" value="kafka" style="rounded=0;whiteSpace=wrap;html=1;fillColor=#008a00;fontColor=#ffffff;strokeColor=#005700;" parent="1" vertex="1">
          <mxGeometry x="340" y="610" width="120" height="60" as="geometry" />
        </mxCell>
        <mxCell id="IrhECHXohic5VT-jn3a0-18" style="edgeStyle=orthogonalEdgeStyle;rounded=0;orthogonalLoop=1;jettySize=auto;html=1;entryX=0.5;entryY=0;entryDx=0;entryDy=0;fillColor=#fa6800;strokeColor=#C73500;startArrow=classic;startFill=1;" parent="1" source="IrhECHXohic5VT-jn3a0-10" target="IrhECHXohic5VT-jn3a0-4" edge="1">
          <mxGeometry relative="1" as="geometry">
            <Array as="points">
              <mxPoint x="425" y="270" />
              <mxPoint x="72" y="270" />
            </Array>
          </mxGeometry>
        </mxCell>
        <mxCell id="IrhECHXohic5VT-jn3a0-19" style="edgeStyle=orthogonalEdgeStyle;rounded=0;orthogonalLoop=1;jettySize=auto;html=1;entryX=0.5;entryY=0;entryDx=0;entryDy=0;fillColor=#fa6800;strokeColor=#C73500;startArrow=classic;startFill=1;" parent="1" source="IrhECHXohic5VT-jn3a0-10" target="IrhECHXohic5VT-jn3a0-5" edge="1">
          <mxGeometry relative="1" as="geometry">
            <Array as="points">
              <mxPoint x="425" y="290" />
              <mxPoint x="290" y="290" />
            </Array>
          </mxGeometry>
        </mxCell>
        <mxCell id="IrhECHXohic5VT-jn3a0-20" style="edgeStyle=orthogonalEdgeStyle;rounded=0;orthogonalLoop=1;jettySize=auto;html=1;entryX=0.5;entryY=0;entryDx=0;entryDy=0;fillColor=#fa6800;strokeColor=#C73500;startArrow=classic;startFill=1;" parent="1" source="IrhECHXohic5VT-jn3a0-10" target="IrhECHXohic5VT-jn3a0-6" edge="1">
          <mxGeometry relative="1" as="geometry">
            <Array as="points">
              <mxPoint x="425" y="290" />
              <mxPoint x="510" y="290" />
            </Array>
          </mxGeometry>
        </mxCell>
        <mxCell id="IrhECHXohic5VT-jn3a0-21" style="edgeStyle=orthogonalEdgeStyle;rounded=0;orthogonalLoop=1;jettySize=auto;html=1;entryX=0.5;entryY=0;entryDx=0;entryDy=0;fillColor=#fa6800;strokeColor=#C73500;startArrow=classic;startFill=1;" parent="1" source="IrhECHXohic5VT-jn3a0-10" target="IrhECHXohic5VT-jn3a0-7" edge="1">
          <mxGeometry relative="1" as="geometry">
            <Array as="points">
              <mxPoint x="425" y="270" />
              <mxPoint x="730" y="270" />
            </Array>
          </mxGeometry>
        </mxCell>
        <mxCell id="IrhECHXohic5VT-jn3a0-10" value="devices" style="sketch=0;outlineConnect=0;fontColor=#000000;strokeColor=#C73500;fillColor=#fa6800;dashed=0;verticalLabelPosition=bottom;verticalAlign=top;align=center;html=1;fontSize=12;fontStyle=0;aspect=fixed;shape=mxgraph.aws4.illustration_devices;pointerEvents=1" parent="1" vertex="1">
          <mxGeometry x="375" y="100" width="100" height="73" as="geometry" />
        </mxCell>
        <mxCell id="IrhECHXohic5VT-jn3a0-12" style="edgeStyle=orthogonalEdgeStyle;rounded=0;orthogonalLoop=1;jettySize=auto;html=1;entryX=0.5;entryY=1;entryDx=0;entryDy=0;entryPerimeter=0;startArrow=classic;startFill=1;fillColor=#0050ef;strokeColor=#001DBC;" parent="1" source="IrhECHXohic5VT-jn3a0-4" target="IrhECHXohic5VT-jn3a0-8" edge="1">
          <mxGeometry relative="1" as="geometry">
            <Array as="points">
              <mxPoint x="72" y="550" />
            </Array>
          </mxGeometry>
        </mxCell>
        <mxCell id="IrhECHXohic5VT-jn3a0-13" style="edgeStyle=orthogonalEdgeStyle;rounded=0;orthogonalLoop=1;jettySize=auto;html=1;entryX=0.145;entryY=1;entryDx=0;entryDy=-4.35;entryPerimeter=0;startArrow=classic;startFill=1;fillColor=#6a00ff;strokeColor=#3700CC;" parent="1" source="IrhECHXohic5VT-jn3a0-5" target="IrhECHXohic5VT-jn3a0-8" edge="1">
          <mxGeometry relative="1" as="geometry">
            <Array as="points">
              <mxPoint x="290" y="529" />
            </Array>
          </mxGeometry>
        </mxCell>
        <mxCell id="IrhECHXohic5VT-jn3a0-15" style="edgeStyle=orthogonalEdgeStyle;rounded=0;orthogonalLoop=1;jettySize=auto;html=1;entryX=0.5;entryY=0;entryDx=0;entryDy=0;entryPerimeter=0;startArrow=classic;startFill=1;fillColor=#a20025;strokeColor=#6F0000;" parent="1" source="IrhECHXohic5VT-jn3a0-7" target="IrhECHXohic5VT-jn3a0-8" edge="1">
          <mxGeometry relative="1" as="geometry">
            <Array as="points">
              <mxPoint x="730" y="550" />
            </Array>
          </mxGeometry>
        </mxCell>
        <mxCell id="IrhECHXohic5VT-jn3a0-16" style="edgeStyle=orthogonalEdgeStyle;rounded=0;orthogonalLoop=1;jettySize=auto;html=1;entryX=0.267;entryY=0;entryDx=0;entryDy=0;entryPerimeter=0;startArrow=classic;startFill=1;fillColor=#d80073;strokeColor=#A50040;" parent="1" source="IrhECHXohic5VT-jn3a0-6" target="IrhECHXohic5VT-jn3a0-8" edge="1">
          <mxGeometry relative="1" as="geometry" />
        </mxCell>
        <mxCell id="IrhECHXohic5VT-jn3a0-17" style="edgeStyle=orthogonalEdgeStyle;rounded=0;orthogonalLoop=1;jettySize=auto;html=1;entryX=1;entryY=0.5;entryDx=0;entryDy=0;entryPerimeter=0;startArrow=classic;startFill=1;fillColor=#008a00;strokeColor=#005700;" parent="1" source="IrhECHXohic5VT-jn3a0-9" target="IrhECHXohic5VT-jn3a0-8" edge="1">
          <mxGeometry relative="1" as="geometry" />
        </mxCell>
        <mxCell id="IrhECHXohic5VT-jn3a0-23" value="core" style="whiteSpace=wrap;html=1;aspect=fixed;" parent="1" vertex="1">
          <mxGeometry x="52" y="380" width="40" height="40" as="geometry" />
        </mxCell>
        <mxCell id="IrhECHXohic5VT-jn3a0-24" value="core" style="whiteSpace=wrap;html=1;aspect=fixed;" parent="1" vertex="1">
          <mxGeometry x="270" y="380" width="40" height="40" as="geometry" />
        </mxCell>
        <mxCell id="IrhECHXohic5VT-jn3a0-25" value="core" style="whiteSpace=wrap;html=1;aspect=fixed;" parent="1" vertex="1">
          <mxGeometry x="490" y="380" width="40" height="40" as="geometry" />
        </mxCell>
        <mxCell id="IrhECHXohic5VT-jn3a0-26" value="core" style="whiteSpace=wrap;html=1;aspect=fixed;" parent="1" vertex="1">
          <mxGeometry x="710" y="380" width="40" height="40" as="geometry" />
        </mxCell>
        <mxCell id="IrhECHXohic5VT-jn3a0-28" value="primary" style="shape=datastore;whiteSpace=wrap;html=1;verticalAlign=middle;labelPosition=center;verticalLabelPosition=bottom;align=center;fillColor=#0050ef;fontColor=#000000;strokeColor=#001DBC;" parent="1" vertex="1">
          <mxGeometry x="-48" y="335" width="30" height="30" as="geometry" />
        </mxCell>
        <mxCell id="IrhECHXohic5VT-jn3a0-29" value="replica&lt;br&gt;(incoming)" style="shape=datastore;whiteSpace=wrap;html=1;verticalAlign=middle;labelPosition=center;verticalLabelPosition=bottom;align=center;fillColor=#0050ef;fontColor=#000000;strokeColor=#001DBC;dashed=1;" parent="1" vertex="1">
          <mxGeometry x="-48" y="390" width="30" height="30" as="geometry" />
        </mxCell>
        <mxCell id="IrhECHXohic5VT-jn3a0-30" value="primary" style="shape=datastore;whiteSpace=wrap;html=1;verticalAlign=middle;labelPosition=center;verticalLabelPosition=bottom;align=center;fillColor=#6a00ff;fontColor=#000000;strokeColor=#3700CC;" parent="1" vertex="1">
          <mxGeometry x="170" y="335" width="30" height="30" as="geometry" />
        </mxCell>
        <mxCell id="IrhECHXohic5VT-jn3a0-31" value="replica&lt;br&gt;(incoming)" style="shape=datastore;whiteSpace=wrap;html=1;verticalAlign=middle;labelPosition=center;verticalLabelPosition=bottom;align=center;fillColor=#6a00ff;fontColor=#000000;strokeColor=#3700CC;dashed=1;" parent="1" vertex="1">
          <mxGeometry x="170" y="395" width="30" height="30" as="geometry" />
        </mxCell>
        <mxCell id="IrhECHXohic5VT-jn3a0-32" value="primary" style="shape=datastore;whiteSpace=wrap;html=1;verticalAlign=middle;labelPosition=center;verticalLabelPosition=bottom;align=center;fillColor=#d80073;fontColor=#000000;strokeColor=#A50040;" parent="1" vertex="1">
          <mxGeometry x="389" y="335" width="30" height="30" as="geometry" />
        </mxCell>
        <mxCell id="IrhECHXohic5VT-jn3a0-33" value="replica&lt;br&gt;(incoming)" style="shape=datastore;whiteSpace=wrap;html=1;verticalAlign=middle;labelPosition=center;verticalLabelPosition=bottom;align=center;fillColor=#d80073;fontColor=#000000;strokeColor=#A50040;dashed=1;" parent="1" vertex="1">
          <mxGeometry x="390" y="390" width="30" height="30" as="geometry" />
        </mxCell>
        <mxCell id="IrhECHXohic5VT-jn3a0-34" value="primary" style="shape=datastore;whiteSpace=wrap;html=1;verticalAlign=middle;labelPosition=center;verticalLabelPosition=bottom;align=center;fillColor=#a20025;fontColor=#000000;strokeColor=#6F0000;" parent="1" vertex="1">
          <mxGeometry x="610" y="335" width="30" height="30" as="geometry" />
        </mxCell>
        <mxCell id="IrhECHXohic5VT-jn3a0-35" value="replica&lt;br&gt;(incoming)" style="shape=datastore;whiteSpace=wrap;html=1;verticalAlign=middle;labelPosition=center;verticalLabelPosition=bottom;align=center;fillColor=#a20025;fontColor=#000000;strokeColor=#6F0000;dashed=1;" parent="1" vertex="1">
          <mxGeometry x="610" y="395" width="30" height="30" as="geometry" />
        </mxCell>
      </root>
    </mxGraphModel>
  </diagram>
</mxfile>
